# xmcd
#
# Track frame offsets: 
#        150
#        15161
#        32052
#        45825
#        59962
#        69818
#        81011
#        91761
#        104019
#        113780
#        126102
#        139713
#        150367
#        167553
#        180750
#
# Disc length: 2531 seconds
#
# Revision: 2
# Processed by: cddbd v1.4PL0 Copyright (c) Steve Scherf et al.
# Submitted via: ExactAudioCopy v0.95a4
#
DISCID=aa09e10f
DTITLE=Various Artist - Country Songs For The Aussie Bloke [CD2]
DYEAR=2001
DGENRE=Country
TTITLE0=Adam Brand - Last Man Standing
TTITLE1=Tommy Emmanuel - Countrywide
TTITLE2=Highwayman - The Highwayman
TTITLE3=Glen Campbell - Rhinestone Cowboy [Live]
TTITLE4=Waylon Jennings - White Lightning
TTITLE5=Don Gibson - Oh Lonesome Me
TTITLE6=Ricky Van Shelton - From Jack To A King
TTITLE7=Johnny Paycheck - Take This Job And Shove It
TTITLE8=Dave Dudley - Six Days On The Road
TTITLE9=Johnny Cash - Falsom Prison Blues
TTITLE10=Jimmy Dean - Big Bad John
TTITLE11=Johnny Russell - Act Naturally
TTITLE12=Ray Price - For The Good Times
TTITLE13=Kenny Rogers - Ruby, Don't Take Your Love To Town
TTITLE14=Roger Miller - Chug A Lug
EXTD=
EXTT0=
EXTT1=
EXTT2=
EXTT3=
EXTT4=
EXTT5=
EXTT6=
EXTT7=
EXTT8=
EXTT9=
EXTT10=
EXTT11=
EXTT12=
EXTT13=
EXTT14=
PLAYORDER=
